<svg xmlns="http://www.w3.org/2000/svg" viewBox="0 0 32 32" fill="none">
  <!-- Background Circle -->
  <circle cx="16" cy="16" r="15" fill="#ff6b35"/>
  
  <!-- Sneaker/Shoe Icon simplified -->
  <path d="M6 18c0-2 1-4 3-5l2-1c1-0.5 2-0.5 3 0l8 4c2 1 3 3 3 5v1c0 1-1 2-2 2H8c-1 0-2-1-2-2v-4z" fill="white"/>
  
  <!-- Shoe sole detail -->
  <path d="M6 20h20c0 1-1 2-2 2H8c-1 0-2-1-2-2v0z" fill="#1a1a1a"/>
  
  <!-- Swoosh/Detail line -->
  <path d="M10 16c2-1 4-1.5 6-1s4 0.5 6 1.5" stroke="#ff6b35" stroke-width="1.5" stroke-linecap="round"/>
</svg>
